<svg xmlns="http://www.w3.org/2000/svg" width="108" height="35" viewBox="0 0 108 35" class="badge-svg" data-v-86583afd=""><defs data-v-86583afd=""><!----><!----><!----></defs><path data-v-86583afd="" d="M 7 0 L 44 0 L 44 35 L 7 35 Q 0 35 0 28 L 0 7 Q 0 0 7 0 Z" fill="#030303"/><!--[--><path data-v-86583afd="" d="M 44 0 L 101 0 Q 108 0 108 7 L 108 28 Q 108 35 101 35 L 44 35 Z" fill="#030303"/><!--]--><g data-v-86583afd="" transform="translate(18, 9.5) scale(0.6666666666666666)"><path data-v-86583afd="" d="M1.402 0C.625 0 0 .625 0 1.402v21.196C0 23.375.625 24 1.402 24h21.196c.777 0 1.402-.625 1.402-1.402V1.402C24 .625 23.375 0 22.598 0zm2.882 5.465h3.038v13.068H4.284v-.986h1.863V6.45H4.284zm12.394 0h3.038v.985h-1.863v11.098h1.863v.986h-3.038zm-7.856 3.55h1.35c.108.441.234.914.378 1.418.153.495.31.99.472 1.485.171.486.342.958.513 1.417.171.46.333.869.486 1.229.153-.36.315-.77.486-1.229.171-.459.338-.931.5-1.417.17-.495.328-.99.472-1.485.153-.504.284-.977.392-1.418h1.296a34.295 34.295 0 0 1-1.242 3.78 56.44 56.44 0 0 1-1.364 3.24h-1.134a63.191 63.191 0 0 1-1.377-3.24 36.226 36.226 0 0 1-1.228-3.78Z" fill="#ff9955"/></g><text x="12" y="17.5" dy="0.35em" font-size="12" font-family="Roboto, sans-serif" fill="#ffffff" text-anchor="middle" letter-spacing="2" font-weight="600" font-style="normal" text-decoration="none" fill-opacity="1" font-variant="normal" style="text-transform:uppercase;" data-v-86583afd=""> </text><!----><text x="76" y="17.5" dy="0.35em" font-size="12" font-family="Montserrat, sans-serif" fill="#FFFFFF" text-anchor="middle" font-weight="900" letter-spacing="2" font-style="normal" text-decoration="none" fill-opacity="1" font-variant="normal" style="text-transform:uppercase;" data-v-86583afd="">MOBX</text><!----></svg>